<?xml version="1.0" encoding="utf-8"?>
<!-- Generator: Adobe Illustrator 16.0.0, SVG Export Plug-In . SVG Version: 6.00 Build 0)  -->
<!DOCTYPE svg PUBLIC "-//W3C//DTD SVG 1.1//EN" "http://www.w3.org/Graphics/SVG/1.1/DTD/svg11.dtd">
<svg version="1.1" id="Layer_1" xmlns="http://www.w3.org/2000/svg" xmlns:xlink="http://www.w3.org/1999/xlink" x="0px" y="0px"
	 width="256px" height="256px" viewBox="0 0 256 256" style="enable-background:new 0 0 256 256;" xml:space="preserve">
<style type="text/css">
<![CDATA[
	.st0{fill:#D5DD26;stroke:#221F1F;stroke-width:4;stroke-linecap:round;stroke-linejoin:round;stroke-miterlimit:10;}
	.st1{fill:#474398;}
	.st2{fill:none;stroke:#000000;stroke-width:4;stroke-linecap:round;stroke-linejoin:round;stroke-miterlimit:10;}
	.st3{opacity:0.6;fill:none;stroke:#E94028;stroke-width:4;stroke-linecap:round;stroke-linejoin:round;stroke-miterlimit:10;}
	.st4{fill:#414141;stroke:#221F1F;stroke-width:2;stroke-miterlimit:10;}
	.st5{fill:none;stroke:#303066;stroke-width:4;stroke-linecap:round;stroke-linejoin:round;stroke-miterlimit:10;}
	.st6{fill:#E94028;}
	.st7{fill:none;stroke:#221F1F;stroke-width:4;stroke-linecap:round;stroke-miterlimit:10;}
	.st8{fill:#D0D1D2;stroke:#221F1F;stroke-width:2;stroke-miterlimit:10;}
	.st9{fill:#59595C;}
	.st10{fill:none;stroke:#221F1F;stroke-linecap:round;stroke-linejoin:round;stroke-miterlimit:10;}
	.st11{fill:#221F1F;}
	.st12{opacity:9.999999e-002;fill:#474398;}
	.st13{fill:none;stroke:#BABCBE;stroke-width:2;stroke-linecap:round;stroke-miterlimit:10;}
	.st14{fill:#474398;stroke:#000000;stroke-width:4;stroke-linecap:round;stroke-linejoin:round;stroke-miterlimit:10;}
	.st15{fill:none;stroke:#221F1F;stroke-width:2;stroke-linecap:round;stroke-linejoin:round;stroke-miterlimit:10;}
	.st16{fill:none;stroke:#221F1F;stroke-width:3;stroke-linecap:round;stroke-linejoin:round;stroke-miterlimit:10;}
	.st17{fill:none;stroke:#221F1F;stroke-width:4;stroke-linecap:round;stroke-linejoin:round;stroke-miterlimit:10;}
	.st18{fill:none;stroke:#000000;stroke-width:2;stroke-linecap:round;stroke-linejoin:round;}
	.st19{fill:none;stroke:#00A44F;stroke-width:4;stroke-linecap:round;stroke-linejoin:round;stroke-miterlimit:10;}
	.st20{fill:#8AC440;stroke:#000000;stroke-width:4;stroke-linecap:round;stroke-linejoin:round;stroke-miterlimit:10;}
	.st21{fill:#474398;stroke:#303066;stroke-width:4;stroke-linecap:round;stroke-linejoin:round;stroke-miterlimit:10;}
	.st22{fill:#D0D1D2;}
	.st23{fill:none;stroke:#000000;stroke-width:2;stroke-linecap:round;stroke-linejoin:round;stroke-dasharray:5,11;}
	.st24{fill:none;stroke:#E94028;stroke-width:4;stroke-linecap:round;stroke-linejoin:round;stroke-miterlimit:10;}
	.st25{fill:#F06624;stroke:#221F1F;stroke-width:4;stroke-linecap:round;stroke-linejoin:round;stroke-miterlimit:10;}
	.st26{fill:#414141;}
	.st27{fill:#A5A7AA;stroke:#221F1F;stroke-miterlimit:10;}
]]>
</style>
<g>
	<path class="st12" d="M12.1,186.6c0,0,0.5,0.5,0.8,1.7c2.7,11.3,18.5,69,57,40.5c0,0,30-24.9,53.1,0.8c0,0,45.7,57.3,126-42.7h-235
		"/>
	<line class="st7" x1="3.9" y1="186" x2="121.9" y2="186"/>
	<line class="st7" x1="127.9" y1="186" x2="130.9" y2="186"/>
	<line class="st7" x1="136.9" y1="186" x2="252.9" y2="186"/>
</g>
<g>
	<line class="st21" x1="89.9" y1="46" x2="89.9" y2="39"/>
	<line class="st21" x1="119.9" y1="46" x2="119.9" y2="39"/>
	<line class="st21" x1="59.9" y1="46" x2="59.9" y2="39"/>
	<g id="XMLID_5_">
		<g>
			<polygon class="st12" points="142.9,67 142.9,155 97.3,155 90.4,163 82.8,155 37.9,155 37.9,67 			"/>
			<rect x="37.9" y="46" class="st1" width="105" height="21"/>
		</g>
		<g>
			<polygon class="st5" points="37.9,67 37.9,46 142.9,46 142.9,67 142.9,155 97.3,155 90.4,163 82.8,155 37.9,155 			"/>
			<line class="st5" x1="37.9" y1="67" x2="142.9" y2="67"/>
		</g>
	</g>
	<g>
		<path class="st6" d="M87.4,128.6c0,2-1.1,3-3.4,3H65.1c-2.3,0-3.4-1-3.4-3c0-1.9,1.1-2.9,3.4-2.9H71v-25.5l-5.4,3.3
			c-0.5,0.3-1,0.4-1.4,0.4c-0.8,0-1.4-0.3-2-1c-0.5-0.7-0.8-1.4-0.8-2.2c0-1.1,0.5-1.9,1.5-2.5l8.7-5.4c1.1-0.7,2.2-1,3.2-1
			c1,0,1.9,0.3,2.5,1c0.6,0.6,1,1.5,1,2.6v30.3h5.9C86.3,125.7,87.4,126.7,87.4,128.6z"/>
		<path class="st6" d="M117.8,114.7c1.2,1.7,1.9,3.7,1.9,6.2c0,3.4-1.3,6.1-3.7,8.1c-2.5,2-5.9,3-10.1,3c-2.4,0-4.8-0.4-7-1.1
			c-2.2-0.7-4.1-1.8-5.7-3.1c-0.9-0.7-1.3-1.6-1.3-2.6c0-0.8,0.2-1.5,0.7-2.1c0.5-0.6,1-0.9,1.7-0.9c0.4,0,0.7,0.1,1,0.2
			c0.3,0.1,0.7,0.3,1.2,0.6c1.6,1,3.1,1.8,4.5,2.4c1.4,0.6,3,0.8,4.6,0.8c2.5,0,4.3-0.5,5.5-1.5c1.2-1,1.8-2.5,1.8-4.5
			c0-2-0.6-3.4-1.9-4.4c-1.3-1-3.2-1.4-5.8-1.4H102c-0.9,0-1.5-0.3-2-0.9c-0.5-0.6-0.7-1.2-0.7-2c0-0.8,0.2-1.5,0.7-2s1.1-0.8,2-0.8
			h2.2c5.1,0,7.7-1.9,7.7-5.8c0-1.8-0.5-3.2-1.6-4.1c-1.1-1-2.6-1.5-4.5-1.5c-2.7,0-5.6,1.1-8.7,3.2c-0.5,0.3-0.9,0.5-1.2,0.6
			c-0.3,0.1-0.6,0.2-1,0.2c-0.6,0-1.2-0.3-1.6-0.9s-0.7-1.3-0.7-2.1c0-0.6,0.1-1,0.3-1.4c0.2-0.4,0.5-0.8,1-1.2
			c1.6-1.3,3.4-2.3,5.6-3.1c2.2-0.8,4.4-1.1,6.7-1.1c3.9,0,7,1,9.3,2.9c2.3,1.9,3.4,4.4,3.4,7.6c0,2.2-0.6,4.1-1.7,5.7
			c-1.1,1.6-2.6,2.8-4.6,3.6C114.8,111.9,116.6,113,117.8,114.7z"/>
	</g>
</g>
<g>
	<polyline class="st20" points="136.9,119 192.6,102.9 196,107.8 	"/>
	<polyline class="st20" points="142.9,119 200.9,106.8 206.6,118.8 	"/>
	<rect x="130.9" y="119" class="st14" width="88" height="53"/>
	<polyline class="st2" points="218.9,137 200.9,137 198.9,143.5 200.9,150 218.9,150 	"/>
	<g>
		<g>
			<path d="M207.6,145.8c3.2,0,3.2-5,0-5S204.4,145.8,207.6,145.8L207.6,145.8z"/>
		</g>
	</g>
	<g>
		<g>
			<line class="st18" x1="130.9" y1="127" x2="133.9" y2="127"/>
			<line class="st23" x1="144.9" y1="127" x2="203.9" y2="127"/>
			<line class="st18" x1="208.9" y1="127" x2="211.9" y2="127"/>
		</g>
	</g>
	<g>
		<g>
			<line class="st18" x1="130.9" y1="164" x2="133.9" y2="164"/>
			<line class="st23" x1="144.9" y1="164" x2="203.9" y2="164"/>
			<line class="st18" x1="208.9" y1="164" x2="211.9" y2="164"/>
		</g>
	</g>
</g>
</svg>
