<?xml version="1.0" encoding="utf-8"?>
<!-- Generator: Adobe Illustrator 17.0.0, SVG Export Plug-In . SVG Version: 6.00 Build 0)  -->
<!DOCTYPE svg PUBLIC "-//W3C//DTD SVG 1.1//EN" "http://www.w3.org/Graphics/SVG/1.1/DTD/svg11.dtd">
<svg version="1.1" id="Layer_1" xmlns="http://www.w3.org/2000/svg" xmlns:xlink="http://www.w3.org/1999/xlink" x="0px" y="0px"
	 width="128px" height="128px" viewBox="136.5 468.5 128 128" enable-background="new 136.5 468.5 128 128" xml:space="preserve">
<g id="icon-tab-car_1_" transform="translate(-327 -290.875)">
	<g>
		<path fill="#FFFFFF" d="M470.441,828.925c1.873-18.368,9.425-54.297,28.267-54.297h57.999c18.867,0,26.405,35.929,28.269,54.297
			H470.441z"/>
		<path fill="#33499B" d="M556.707,778.627c13.721,0,21.208,27.282,23.766,46.297H474.99c0.759-5.594,2.087-13.267,4.325-20.898
			c2.379-8.114,5.265-14.455,8.577-18.849c4.426-5.871,8.293-6.55,10.817-6.55H556.707 M556.707,770.627c-43.35,0-15.262,0-57.999,0
			c-28.701,0-32.615,62.297-32.615,62.297h123.229C589.322,832.925,585.409,770.627,556.707,770.627L556.707,770.627z"/>
	</g>
	<g id="Rectangle_10_1_" transform="translate(327 297)">
		<g>
			<path fill="#FFFFFF" d="M140.483,557.293v-26.827c0-11.96,9.73-21.689,21.69-21.689h77.068c11.96,0,21.689,9.729,21.689,21.689
				v26.827H140.483z"/>
			<path fill="#33499B" d="M239.242,512.776c9.754,0,17.69,7.936,17.69,17.69v22.828H144.484v-22.828
				c0-9.754,7.936-17.69,17.69-17.69H239.242 M239.242,504.776h-77.069c-14.188,0-25.69,11.502-25.69,25.69v25.69
				c0,2.838,0,5.138,0,5.138h128.448c0,0,0-2.3,0-5.138v-25.69C264.932,516.278,253.43,504.776,239.242,504.776L239.242,504.776z"/>
		</g>
	</g>
	<g id="Ellipse_1_1_" transform="translate(330 300)">
		<g>
			<path fill="#33499B" d="M158.604,522.897c2.206,0,4,1.794,4,4c0,2.206-1.794,4-4,4s-4-1.794-4-4
				C154.604,524.691,156.399,522.897,158.604,522.897 M158.604,514.897c-6.627,0-12,5.373-12,12c0,6.627,5.373,12,12,12
				c6.627,0,12-5.373,12-12C170.604,520.269,165.232,514.897,158.604,514.897L158.604,514.897z"/>
		</g>
	</g>
	<g id="Ellipse_2_2_" transform="translate(346 300)">
		<g>
			<path fill="#33499B" d="M220.811,522.897c2.206,0,4,1.794,4,4c0,2.206-1.794,4-4,4s-4-1.794-4-4
				C216.811,524.691,218.605,522.897,220.811,522.897 M220.811,514.897c-6.627,0-12,5.373-12,12c0,6.627,5.373,12,12,12
				c6.627,0,12-5.373,12-12C232.811,520.269,227.438,514.897,220.811,514.897L220.811,514.897z"/>
		</g>
	</g>
	
		<line id="Line_1_1_" fill="none" stroke="#33499B" stroke-width="8" stroke-linecap="round" stroke-linejoin="round" x1="512.294" y1="824.897" x2="543.121" y2="824.897"/>
	
		<line id="Line_9_1_" fill="none" stroke="#33499B" stroke-width="8" stroke-linecap="round" stroke-linejoin="round" x1="512.294" y1="839.31" x2="543.121" y2="839.31"/>
	<g id="Rectangle_12_2_" transform="translate(347 308)">
		<g>
			<path fill="#FFFFFF" d="M130.214,563.728c-5.356,0-9.715-4.127-9.715-9.2v-4.8h24v4.8c0,5.073-4.357,9.2-9.714,9.2H130.214z"/>
			<path fill="#33499B" d="M140.5,553.728v0.8c0,2.867-2.563,5.2-5.714,5.2h-4.571c-3.151,0-5.714-2.333-5.714-5.2v-0.8H140.5
				 M148.5,545.728h-32v8.8c0,7.29,6.14,13.2,13.714,13.2h4.571c7.574,0,13.714-5.91,13.714-13.2V545.728L148.5,545.728z"/>
		</g>
	</g>
	<g id="Rectangle_12_1_" transform="translate(347 308)">
		<g>
			<path fill="#FFFFFF" d="M226.214,563.728c-5.356,0-9.714-4.127-9.714-9.2v-4.8h24v4.8c0,5.073-4.357,9.2-9.714,9.2H226.214z"/>
			<path fill="#33499B" d="M236.5,553.728v0.8c0,2.867-2.563,5.2-5.714,5.2h-4.571c-3.151,0-5.714-2.333-5.714-5.2v-0.8H236.5
				 M244.5,545.728h-32v8.8c0,7.29,6.14,13.2,13.714,13.2h4.571c7.574,0,13.714-5.91,13.714-13.2V545.728L244.5,545.728z"/>
		</g>
	</g>
</g>
</svg>
