<?xml version="1.0" encoding="utf-8"?>
<!-- Generator: Adobe Illustrator 16.0.0, SVG Export Plug-In . SVG Version: 6.00 Build 0)  -->
<!DOCTYPE svg PUBLIC "-//W3C//DTD SVG 1.1//EN" "http://www.w3.org/Graphics/SVG/1.1/DTD/svg11.dtd">
<svg version="1.1" id="Layer_1" xmlns="http://www.w3.org/2000/svg" xmlns:xlink="http://www.w3.org/1999/xlink" x="0px" y="0px"
	 width="256px" height="256px" viewBox="0 0 256 256" style="enable-background:new 0 0 256 256;" xml:space="preserve">
<style type="text/css">
<![CDATA[
	.st0{fill:#D5DD26;stroke:#221F1F;stroke-width:4;stroke-linecap:round;stroke-linejoin:round;stroke-miterlimit:10;}
	.st1{fill:#474398;}
	.st2{opacity:0.6;fill:none;stroke:#E94028;stroke-width:4;stroke-linecap:round;stroke-linejoin:round;stroke-miterlimit:10;}
	.st3{fill:#414141;stroke:#221F1F;stroke-width:2;stroke-miterlimit:10;}
	.st4{fill:none;stroke:#221F1F;stroke-width:4;stroke-linecap:round;stroke-miterlimit:10;}
	.st5{fill:#D0D1D2;stroke:#221F1F;stroke-width:2;stroke-miterlimit:10;}
	.st6{fill:#59595C;}
	.st7{fill:none;stroke:#221F1F;stroke-linecap:round;stroke-linejoin:round;stroke-miterlimit:10;}
	.st8{fill:#221F1F;}
	.st9{opacity:9.999999e-002;fill:#474398;}
	.st10{fill:none;stroke:#BABCBE;stroke-width:2;stroke-linecap:round;stroke-miterlimit:10;}
	.st11{fill:none;stroke:#221F1F;stroke-width:2;stroke-linecap:round;stroke-linejoin:round;stroke-miterlimit:10;}
	.st12{fill:none;stroke:#221F1F;stroke-width:3;stroke-linecap:round;stroke-linejoin:round;stroke-miterlimit:10;}
	.st13{fill:none;stroke:#221F1F;stroke-width:4;stroke-linecap:round;stroke-linejoin:round;stroke-miterlimit:10;}
	.st14{fill:none;stroke:#00A44F;stroke-width:4;stroke-linecap:round;stroke-linejoin:round;stroke-miterlimit:10;}
	.st15{fill:#D0D1D2;}
	.st16{fill:none;stroke:#E94028;stroke-width:4;stroke-linecap:round;stroke-linejoin:round;stroke-miterlimit:10;}
	.st17{fill:#F06624;stroke:#221F1F;stroke-width:4;stroke-linecap:round;stroke-linejoin:round;stroke-miterlimit:10;}
	.st18{fill:#414141;}
	.st19{fill:#A5A7AA;stroke:#221F1F;stroke-miterlimit:10;}
]]>
</style>
<g>
	<path class="st9" d="M12.1,186.6c0,0,0.5,0.5,0.8,1.7c2.7,11.3,18.5,69,57,40.5c0,0,30-24.9,53.1,0.8c0,0,45.7,57.3,126-42.7H14"/>
	<line class="st4" x1="4" y1="186" x2="122" y2="186"/>
	<line class="st4" x1="128" y1="186" x2="131" y2="186"/>
	<line class="st4" x1="137" y1="186" x2="253" y2="186"/>
</g>
<g>
	<g id="XMLID_1_">
		<g>
			<g id="XMLID_2_">
				<g>
					<path class="st8" d="M208.6,138.4c19.3,0.6,24.4,15.9,25.6,24.9l-51.5,1.3h0C185.4,137.9,208.6,138.4,208.6,138.4z"/>
					<path class="st8" d="M72.4,164.6L22.4,160c1.6-8.4,5.6-13.5,9.9-16.5c6.9-5,14.5-4.6,14.5-4.6c18.9,0.3,24,15.5,25.3,24.4
						C72.2,163.7,72.3,164.2,72.4,164.6L72.4,164.6z"/>
					<path class="st15" d="M218.5,123.7c0,0-2.1-5.5,5-4.7c16.6,8.4,16.8,18.3,16.8,18.6C240.3,137.7,223.2,133.3,218.5,123.7z"/>
					<path class="st1" d="M110.5,86.7c-1.5,0-2.9,0-4.5,0c-0.2-3.3-0.4-5.5-0.4-5.5c5,0.3,8.1,0.5,8.1,0.5
						c17.4,0.1,34.8,5.5,34.8,5.5c22.1,9.1,34.5,18.9,37.4,21.4l-5,4.6c-0.1-0.2-0.3-0.3-0.4-0.5c0,0-1.6-1.5-4.2-3.7
						c-1.1-0.9-2.3-1.9-3.8-3c-5.2-4-12.2-8.6-19.1-10.9C153.5,95.1,135.1,87,110.5,86.7z"/>
					<path class="st1" d="M109.2,115.6l6,0.3l65.4,3c0,0,3.7,20.6-0.7,37.8c0,0,0,0.1,0,0.2h-0.1c0.1-0.3,0.1-0.5,0.1-0.6l-3.3-0.1
						l-61-1l-3.6-0.1c0.3-6.4,0.4-13.4,0.4-13.4C112.6,128.5,109.2,115.6,109.2,115.6z"/>
					<path class="st1" d="M166.5,113.3c-0.2-1.7-0.3-3.9,0.3-5c0,0,2.1-3.4,5.8-2.2c1.4,1.1,2.7,2.1,3.8,3c0,0,1.2,4.8-0.5,6.6
						l-2.3-2.4C173.6,113.3,170.4,112.5,166.5,113.3z"/>
					<path class="st15" d="M166.5,113.3c3.9-0.8,7.1,0,7.1,0l2.3,2.4c-0.2,0.2-0.4,0.4-0.6,0.5l-8.5-0.7
						C166.8,115.4,166.6,114.5,166.5,113.3z"/>
					<path class="st1" d="M115.6,155.9l-3.7-0.2c0-0.2,0-0.5,0-0.7l3.6,0.1l61,1l3.3,0.1c0,0.1-0.1,0.3-0.1,0.6l-3.1-0.1l-32.9-0.5
						L115.6,155.9z"/>
					<path class="st18" d="M106.1,86.7c1.5,0,3-0.1,4.5,0c0.1,0.9,2.5,25.9,4.6,29.2l-6-0.3C108,110.8,106.7,95.1,106.1,86.7z"/>
					<path class="st1" d="M111.9,155.1c0,0.2,0,0.5,0,0.7c-0.1,3.5-0.4,6.8-0.6,8.5C111.5,162.5,111.8,158.9,111.9,155.1
						L111.9,155.1z"/>
					<path class="st1" d="M111.3,164.6c0-0.1,0-0.2,0.1-0.4c0.3-1.9,0.5-5.5,0.6-9.5l3.7,0.2l28.4,0.5l33.3,0.5l3.2,0.1
						c-0.4,2.1-1.6,7.1-3.4,7.5c0,0-20.4,0.7-43.6,1c0,0-0.1,0-0.1,0c-0.9,0-1.8,0-2.7,0c0,0-0.1,0-0.1,0c-1.4,0-2.7,0-4.1,0
						C121.3,164.6,116.2,164.6,111.3,164.6z"/>
					<path class="st15" d="M110.5,86.7c24.5,0.3,43,8.4,43,8.4c6.9,2.3,13.9,7,19.1,10.9c-3.7-1.2-5.8,2.2-5.8,2.2
						c-0.6,1.1-0.5,3.4-0.3,5c0.1,1.2,0.3,2.1,0.3,2.1l8.5,0.7c0.3-0.1,0.5-0.3,0.6-0.5c1.6-1.8,0.5-6.6,0.5-6.6
						c2.6,2.2,4.2,3.7,4.2,3.7c0.2,0.2,0.3,0.3,0.4,0.5c2.3,3.2-0.4,5.6-0.4,5.6l-65.4-3C113,112.6,110.6,87.6,110.5,86.7z"/>
					<path class="st18" d="M106.1,86.7c0.6,8.4,1.9,24,3.1,28.9c-2.4,0-4.6,0-6.8,0c1.5-2.1-2-29-2-29
						C103.9,86.7,106.1,86.7,106.1,86.7z"/>
					<path class="st15" d="M102.4,115.6c-17.5,0-29.1-0.8-36.9-1.6l-1.1-26.6c11.4-1.1,27.5-1,36-0.9
						C100.3,86.6,103.9,113.5,102.4,115.6z"/>
					<path class="st1" d="M72.2,163.3c7.9,0.9,22.9,1.3,39.1,1.3c4.9,0,10,0,15,0c1.4,0,2.7,0,4.1,0c0,0,0.1,0,0.1,0
						c0.9,0,1.8,0,2.7,0c0,0,0.1,0,0.1,0c23.1-0.3,43.2-0.8,43.2-0.8c2-0.4,3.3-5.7,3.5-6.7c0-0.1,0-0.2,0-0.2
						c4.4-17.2,0.7-37.8,0.7-37.8s2.8-2.5,0.4-5.6l5-4.6c0.5,0.4,0.7,0.6,0.7,0.6c21.3,3.7,31.6,7.3,31.6,7.3
						c1.9,0.8,3.7,1.6,5.3,2.4c-7-0.8-5,4.7-5,4.7c4.6,9.6,21.7,13.9,21.7,13.9c3.1,3.3,2.7,24,2.7,24l3.1,3.3
						c-3.7,4.8-11.4,4.8-11.4,4.8s0.1-2.7-0.4-6.4c-1.3-9-6.3-24.2-25.6-24.9c0,0-23.2-0.5-25.8,26.2c-0.2,1.6-0.2,3.3-0.2,5.1
						c0,0-97.3-1.9-109.9-0.2c0,0,0.1-2-0.3-4.9C72.3,164.2,72.2,163.7,72.2,163.3z"/>
					<path class="st18" d="M64.4,87.5l1.1,26.6c-12-1.3-14.6-2.9-14.6-2.9c-6.6-19.3,7.8-22.9,7.8-22.9
						C60.4,87.9,62.3,87.7,64.4,87.5z"/>
					<path class="st1" d="M42.9,85.4c0,0-2.8,1.8-6.3,5.4c-3.4-1.2-3.9-6.7-3.9-6.7c5.7-2.3,14.5,0,14.5,0
						C45.8,84.5,44.3,84.9,42.9,85.4z"/>
					<path class="st1" d="M37.6,127.5c-2.7,0-4.8-2.2-4.8-4.8c0-2.7,2.2-4.8,4.8-4.8c2.7,0,4.8,2.1,4.8,4.8
						C42.5,125.4,40.3,127.5,37.6,127.5z"/>
					<path class="st1" d="M32.8,122.7c0,2.7,2.2,4.8,4.8,4.8c2.7,0,4.8-2.2,4.8-4.8c0-2.7-2.2-4.8-4.8-4.8
						C35,117.9,32.8,120,32.8,122.7z M105.7,81.3c0,0,0.1,2.2,0.4,5.5c0,0-2.2-0.1-5.8-0.2c-8.5-0.1-24.5-0.2-36,0.9
						c-2.1,0.2-4,0.4-5.7,0.7c0,0-14.4,3.6-7.8,22.9c0,0,2.6,1.6,14.6,2.9c7.8,0.8,19.4,1.5,36.9,1.6c2.2,0,4.5,0,6.8,0
						c0,0,3.4,12.9,3.1,26.1c0,0-0.1,7-0.4,13.4h0c-0.1,3.8-0.4,7.3-0.6,9.1c0,0.1,0,0.2,0,0.3c-16.2,0-31.2-0.4-39.1-1.3
						c-1.4-8.9-6.5-24.2-25.3-24.4c0,0-7.7-0.3-14.5,4.6c-2.4-3.8-6.5-15.1-7.4-17.7c0-0.1-0.1-0.2-0.1-0.2c0,0,0,0,0,0
						c0-0.1-0.1-0.2-0.1-0.3c0,0,0,0,0,0c0.8-1,1.3-2,1.3-2c0.1-0.9,1.9-9.4,1.9-9.4c2.7-7.2,3.9-17.1,3.9-17.1
						c1.6-2.4,3.3-4.4,4.9-6c3.5-3.7,6.3-5.4,6.3-5.4c1.3-0.5,2.8-0.9,4.4-1.3c5.7-1.4,12.5-2.2,19.6-2.7
						C81.2,80.4,96.6,80.9,105.7,81.3z"/>
					<path class="st1" d="M31.8,142.8c-2.3-3.6-6.1-14.5-7-17c0.9,2.6,5,14,7.4,17.7C32.1,143.3,32,143.1,31.8,142.8z"/>
					<path class="st1" d="M24.8,125.5C24.8,125.5,24.8,125.5,24.8,125.5C24.8,125.5,24.8,125.5,24.8,125.5z"/>
					<path class="st1" d="M20.9,127.8c1.5,0,2.9-1.3,3.8-2.5c0,0,0,0.1,0.1,0.3c0,0,0,0,0,0c0,0.1,0.1,0.2,0.1,0.2
						c0.9,2.5,4.7,13.4,7,17c0.2,0.3,0.3,0.5,0.5,0.7c-4.3,3.1-8.2,8.1-9.9,16.5c-0.4,2-0.6,4.1-0.8,6.5c-4-0.5-5.4-5.8-5.4-5.8
						c-1.8-8.8,0.9-23.7,0.9-23.7C20.2,133.9,20.9,127.8,20.9,127.8z"/>
					<path class="st1" d="M24.7,125.3c0,0,0,0.1,0.1,0.3C24.7,125.4,24.7,125.3,24.7,125.3z"/>
					<path class="st15" d="M24.7,125.3C24.7,125.3,24.7,125.3,24.7,125.3c-0.9,1.2-2.2,2.5-3.8,2.5l0.8-12.1l3.7-6
						c1.7-5.1,4-9.4,6.4-12.9c0,0-1.2,9.9-3.9,17.1c0,0-1.8,8.5-1.9,9.4C25.9,123.3,25.5,124.2,24.7,125.3z"/>
				</g>
				<g>
					<path class="st12" d="M20.9,127.8c0,0-0.7,6.2-3.7,9.3c0,0-2.7,14.8-0.9,23.7c0,0,1.4,5.3,5.4,5.8c0.1-2.3,0.4-4.5,0.8-6.5
						c1.6-8.4,5.6-13.5,9.9-16.5c6.9-5,14.5-4.6,14.5-4.6c18.9,0.3,24,15.5,25.3,24.4c0.1,0.5,0.1,0.9,0.2,1.3
						c0.4,2.9,0.3,4.9,0.3,4.9c12.6-1.6,109.9,0.2,109.9,0.2c0-1.8,0.1-3.5,0.2-5.1c2.6-26.7,25.8-26.2,25.8-26.2
						c19.3,0.6,24.4,15.9,25.6,24.9c0.5,3.8,0.4,6.4,0.4,6.4s7.6,0,11.4-4.8l-3.1-3.3c0,0,0.4-20.7-2.7-24c0-0.3-0.1-10.3-16.8-18.6
						c-1.6-0.8-3.3-1.6-5.3-2.4c0,0-10.3-3.6-31.6-7.3c0,0-0.2-0.2-0.7-0.6c-2.9-2.5-15.3-12.4-37.4-21.4c0,0-17.4-5.4-34.8-5.5
						c0,0-3.1-0.2-8.1-0.5c-9.1-0.4-24.5-0.9-38.8,0.1c-7.1,0.5-13.9,1.3-19.6,2.7c-1.5,0.4-3,0.8-4.4,1.3c0,0-2.8,1.8-6.3,5.4
						c-1.6,1.6-3.3,3.6-4.9,6c-2.4,3.5-4.8,7.8-6.4,12.9l-3.7,6L20.9,127.8z"/>
					<path class="st12" d="M240.3,137.7c0,0-17.1-4.4-21.7-13.9c0,0-2.1-5.5,5-4.7"/>
					<line class="st12" x1="63.7" y1="122.4" x2="56.3" y2="121.8"/>
					<line class="st12" x1="128.5" y1="126.3" x2="121.1" y2="125.8"/>
					<path class="st12" d="M37.6,127.5c2.7,0,4.8-2.2,4.8-4.8c0-2.7-2.2-4.8-4.8-4.8c-2.7,0-4.8,2.1-4.8,4.8
						C32.8,125.4,35,127.5,37.6,127.5z"/>
					<path class="st12" d="M24.7,125.3c-0.9,1.2-2.2,2.5-3.8,2.5"/>
					<path class="st12" d="M31.8,96.8c0,0-1.2,9.9-3.9,17.1c0,0-1.8,8.5-1.9,9.4c0,0-0.5,1-1.3,2"/>
					<path class="st12" d="M24.7,125.3C24.7,125.3,24.7,125.3,24.7,125.3c0,0,0,0.1,0.1,0.3c0,0,0,0,0,0c0,0.1,0.1,0.2,0.1,0.2
						c0.9,2.5,4.7,13.4,7,17c0.2,0.3,0.3,0.5,0.5,0.7"/>
					<path class="st12" d="M105.7,81.3c0,0,0.1,2.2,0.4,5.5c0.6,8.4,1.9,24,3.1,28.9c0,0,3.4,12.9,3.1,26.1c0,0-0.1,7-0.4,13.4
						c0,0.2,0,0.5,0,0.7c-0.1,3.5-0.4,6.8-0.6,8.5c0,0.1,0,0.2,0,0.3"/>
					<path class="st12" d="M180.6,119c0,0,2.8-2.5,0.4-5.6c-0.1-0.2-0.3-0.3-0.4-0.5c0,0-1.6-1.5-4.2-3.7c-1.1-0.9-2.3-1.9-3.8-3
						c-5.2-4-12.2-8.6-19.1-10.9c0,0-18.4-8.1-43-8.4c-1.5,0-2.9,0-4.5,0c0,0-2.2-0.1-5.8-0.2c-8.5-0.1-24.5-0.2-36,0.9
						c-2.1,0.2-4,0.4-5.7,0.7c0,0-14.4,3.6-7.8,22.9c0,0,2.6,1.6,14.6,2.9c7.8,0.8,19.4,1.5,36.9,1.6c2.2,0,4.5,0,6.8,0l6,0.3
						L180.6,119c0,0,3.7,20.6-0.7,37.8c0,0,0,0.1,0,0.2c-0.2,1-1.4,6.4-3.5,6.7c0,0-20.1,0.6-43.2,0.8c0,0-0.1,0-0.1,0
						c-0.9,0-1.8,0-2.7,0c0,0-0.1,0-0.1,0c-1.4,0-2.7,0-4.1,0c-5,0-10,0.1-15,0c-16.2,0-31.2-0.4-39.1-1.3"/>
					<path class="st12" d="M110.5,86.7C110.5,86.7,110.5,86.7,110.5,86.7c0.1,0.9,2.5,25.9,4.6,29.2"/>
					<path class="st12" d="M100.3,86.6c0,0,3.6,26.9,2,29v0"/>
					<polyline class="st12" points="64.4,87.5 64.4,87.5 65.5,114 					"/>
					<path class="st12" d="M176.3,109.1c0,0,1.2,4.8-0.5,6.6c-0.2,0.2-0.4,0.4-0.6,0.5l-8.5-0.7c0,0-0.2-0.9-0.3-2.1
						c-0.2-1.7-0.3-3.9,0.3-5c0,0,2.1-3.4,5.8-2.2"/>
					<path class="st12" d="M175.9,115.7l-2.3-2.4c0,0-3.2-0.8-7.1,0h0"/>
					<polyline class="st12" points="173.8,156.8 143.7,156.3 118,155.9 					"/>
					<line class="st12" x1="105.7" y1="155.9" x2="79" y2="155.2"/>
					<path class="st12" d="M66.9,81.4c0,0-8-8.4-8.7-9.4"/>
					<path class="st12" d="M47.3,84.1c0,0-8.8-2.3-14.5,0c0,0,0.4,5.5,3.9,6.7"/>
					<line class="st12" x1="185.9" y1="108.7" x2="181" y2="113.3"/>
					<line class="st12" x1="22.4" y1="160" x2="72.4" y2="164.6"/>
					<line class="st12" x1="182.8" y1="164.6" x2="234.3" y2="163.3"/>
				</g>
			</g>
		</g>
	</g>
	<line class="st10" x1="122.9" y1="96.1" x2="132.1" y2="112.7"/>
	<line class="st10" x1="131.7" y1="99" x2="139.3" y2="112.7"/>
	<line class="st10" x1="74.2" y1="97.2" x2="81.7" y2="110.9"/>
	<g>
		<circle class="st3" cx="208.6" cy="163.3" r="19.7"/>
		<circle class="st5" cx="208.6" cy="163.3" r="12.6"/>
		<g>
			<polygon class="st8" points="208.7,160 204.9,151.6 212.4,150.3 210.4,159 			"/>
			<polygon class="st8" points="208.6,166.5 212.4,175 204.9,176.2 206.9,167.5 			"/>
			<polygon class="st8" points="220.3,159.9 221.6,167.4 212.9,165.4 211.9,163.7 			"/>
			<polygon class="st8" points="204.4,161.9 205.4,163.6 197,167.4 195.7,159.9 			"/>
		</g>
	</g>
	<g>
		<g>
			<line class="st2" x1="209.2" y1="68.4" x2="215.5" y2="64.1"/>
			<line class="st16" x1="188.1" y1="49.9" x2="199.3" y2="38.1"/>
			<line class="st2" x1="161.1" y1="38.1" x2="164" y2="31.2"/>
			<line class="st16" x1="129.7" y1="27.8" x2="132.5" y2="16.2"/>
		</g>
		<g>
			<line class="st16" x1="19.1" y1="68.4" x2="12.8" y2="64.1"/>
			<line class="st2" x1="40.2" y1="49.9" x2="29" y2="38.1"/>
			<line class="st16" x1="67.2" y1="38.1" x2="64.3" y2="31.2"/>
			<line class="st2" x1="98.6" y1="27.8" x2="95.9" y2="16.2"/>
		</g>
	</g>
	<g>
		<circle class="st3" cx="46.8" cy="163.3" r="19.7"/>
		<circle class="st5" cx="46.8" cy="163.3" r="12.6"/>
		<g>
			<polygon class="st8" points="46.9,160 43.1,151.6 50.6,150.3 48.6,159 			"/>
			<polygon class="st8" points="46.8,166.5 50.6,175 43.1,176.2 45.1,167.5 			"/>
			<polygon class="st8" points="58.5,159.9 59.8,167.4 51.1,165.4 50.1,163.7 			"/>
			<polygon class="st8" points="42.6,161.9 43.6,163.6 35.1,167.4 33.9,159.9 			"/>
		</g>
	</g>
</g>
</svg>
